<?xml version="1.0" encoding="UTF-8"?>
<svg version="1.1" xmlns="http://www.w3.org/2000/svg" width="500" height="500">
<path d="M0 0 C165 0 330 0 500 0 C500 165 500 330 500 500 C335 500 170 500 0 500 C0 335 0 170 0 0 Z " fill="#FEFEFE" transform="translate(0,0)"/>
<path d="M0 0 C0.33 -0.33 0.66 -0.66 1 -1 C4 -1.125 4 -1.125 7 -1 C9.01974733 1.01974733 8.16399439 5.13084517 8.16796875 7.90234375 C8.17296135 9.09169273 8.17296135 9.09169273 8.17805481 10.30506897 C8.18312726 11.98551858 8.18546304 13.66597829 8.18530273 15.34643555 C8.18748786 17.92318259 8.20563609 20.49950076 8.22460938 23.07617188 C8.22754345 24.7057277 8.22952815 26.33528556 8.23046875 27.96484375 C8.23765427 28.73884018 8.24483978 29.51283661 8.25224304 30.31028748 C8.22882253 35.77117747 8.22882253 35.77117747 6 38 C3.375 38.125 3.375 38.125 1 38 C0.67 37.01 0.34 36.02 0 35 C-0.556875 35.28875 -1.11375 35.5775 -1.6875 35.875 C-7.76997826 38.83404348 -12.37159829 40.37647634 -19.1015625 38.375 C-24.67270075 36.03804313 -27.52525952 32.43805633 -30 27 C-32.06001251 20.44783119 -32.08706423 13.30948774 -29 7.125 C-21.79267027 -4.12004947 -11.59050395 -3.16104653 0 0 Z " fill="#3C3B48" transform="translate(365,246)"/>
<path d="M0 0 C2.50093047 2.07132278 4.46497041 4.12496507 6 7 C5.875 9.9375 5.875 9.9375 5 12 C2.9375 12.875 2.9375 12.875 0 13 C-1.94056512 11.63120853 -3.56984092 10.11770995 -5.25390625 8.4453125 C-9.04118414 5.31042923 -13.81097089 5.73778681 -18.515625 5.765625 C-21.81557129 6.07694069 -24.21834092 7.24316269 -27 9 C-27 10.98 -27 12.96 -27 15 C-22.18152639 16.83633167 -17.76497488 17.43127137 -12.6875 17.875 C1.63405482 19.35420719 1.63405482 19.35420719 6.69140625 24.83203125 C9.04355933 28.72888187 8.79741573 32.61421347 8 37 C5.68865407 41.97033332 1.8779888 44.36451713 -3.0625 46.4375 C-12.03544558 49.253737 -21.21575169 49.29970722 -29.83203125 45.3359375 C-33.36222378 43.16057562 -35.9391032 40.60454892 -38 37 C-38.5625 34.1875 -38.5625 34.1875 -38 32 C-35 30 -35 30 -32.5625 30 C-28.96025926 31.40575248 -27.95810559 33.75899764 -26 37 C-22.8870419 38.55647905 -19.60088167 38.18446048 -16.1875 38.1875 C-15.11918945 38.20586914 -15.11918945 38.20586914 -14.02929688 38.22460938 C-9.94495153 38.23594428 -6.57501325 38.07515137 -3 36 C-2.10169161 32.94727535 -2.10169161 32.94727535 -2 30 C-8.15301004 26.98077034 -13.5504747 26.34246174 -20.328125 25.91601562 C-27.14699294 25.34197827 -31.82258644 23.51240026 -36.4375 18.1875 C-38.37063976 14.24389489 -38.82292734 12.33907143 -38 8 C-35.20090912 3.53791982 -31.37205537 -0.82512098 -26.2734375 -2.6015625 C-17.9020947 -4.06870505 -7.54760531 -4.47207383 0 0 Z " fill="#3E3D49" transform="translate(112,237)"/>
<path d="M0 0 C4.73550564 2.89928917 7.92468376 6.69673401 10.0625 11.875 C10.328125 14.3828125 10.328125 14.3828125 10.3125 17 C10.32023437 18.30324219 10.32023437 18.30324219 10.328125 19.6328125 C10.0625 21.875 10.0625 21.875 8.0625 23.875 C5.26513672 24.10205078 5.26513672 24.10205078 1.7421875 24.0703125 C-0.14306641 24.06064453 -0.14306641 24.06064453 -2.06640625 24.05078125 C-3.38511719 24.03402344 -4.70382813 24.01726562 -6.0625 24 C-7.40233721 23.98996983 -8.74218152 23.98084404 -10.08203125 23.97265625 C-13.36736573 23.94902075 -16.65234465 23.91607234 -19.9375 23.875 C-17.93061406 27.5627603 -17.93061406 27.5627603 -14.8125 30.25 C-10.75925414 31.13114041 -6.97113708 30.81164981 -2.9375 29.875 C-1.9475 29.215 -0.9575 28.555 0.0625 27.875 C2.6875 27.6875 2.6875 27.6875 5.0625 27.875 C6.0625 28.875 6.0625 28.875 6.375 31.1875 C6.0625 33.875 6.0625 33.875 4.5 36.0625 C-0.23381687 39.58251767 -5.74214389 40.40259904 -11.53125 40.25390625 C-16.70422415 39.43933078 -21.78767536 37.1379733 -25.421875 33.3125 C-29.92478052 26.78654997 -29.66437632 19.4987493 -28.9375 11.875 C-27.11776618 6.38178481 -23.31765046 2.52466768 -18.3125 -0.28125 C-12.52574584 -2.33707056 -5.76690404 -2.09018793 0 0 Z " fill="#3E3D4A" transform="translate(151.9375,245.125)"/>
<path d="M0 0 C4.30850778 4.03557064 6.73043798 7.32643383 7.16796875 13.2890625 C7.17763672 14.44535156 7.17763672 14.44535156 7.1875 15.625 C7.20167969 16.40101563 7.21585938 17.17703125 7.23046875 17.9765625 C7 20 7 20 5 22 C2.20263672 22.22705078 2.20263672 22.22705078 -1.3203125 22.1953125 C-3.20556641 22.18564453 -3.20556641 22.18564453 -5.12890625 22.17578125 C-6.44761719 22.15902344 -7.76632813 22.14226562 -9.125 22.125 C-10.46483721 22.11496983 -11.80468152 22.10584404 -13.14453125 22.09765625 C-16.42986573 22.07402075 -19.71484465 22.04107234 -23 22 C-21.824375 23.4540625 -21.824375 23.4540625 -20.625 24.9375 C-20.18414062 25.48277344 -19.74328125 26.02804687 -19.2890625 26.58984375 C-17.61998559 28.41571273 -16.47008265 28.95197584 -14.01171875 29.203125 C-8.92719168 29.30567008 -6.35103051 28.77982505 -2 26 C0.8125 26.3125 0.8125 26.3125 3 27 C3.495 29.475 3.495 29.475 4 32 C-1.74271597 37.06710232 -6.93296703 38.50114799 -14.4765625 38.30859375 C-21.2749274 37.47721476 -25.59480133 33.90814009 -29.87109375 28.78125 C-33.14039079 23.6227744 -32.52606728 16.85437736 -32 11 C-30.47734749 5.39553806 -27.54159558 2.10175159 -22.78125 -1.08984375 C-15.72476761 -4.69545866 -6.64625319 -3.9621894 0 0 Z " fill="#3E3D4A" transform="translate(223,247)"/>
<path d="M0 0 C4.22997458 3.92046424 7.37863915 8.0794102 7.70776367 13.97875977 C7.73217505 17.29844446 7.7481526 20.6177186 7.75 23.9375 C7.76224609 25.09958984 7.77449219 26.26167969 7.78710938 27.45898438 C7.78904297 28.56693359 7.79097656 29.67488281 7.79296875 30.81640625 C7.79707764 31.83420166 7.80118652 32.85199707 7.80541992 33.90063477 C7.5625 36.375 7.5625 36.375 5.5625 38.375 C3.0625 38.625 3.0625 38.625 0.5625 38.375 C-2.07105143 35.74144857 -1.68930861 34.52087459 -1.7109375 30.8515625 C-1.7315625 29.748125 -1.7521875 28.6446875 -1.7734375 27.5078125 C-1.79939135 25.17715655 -1.81767309 22.84640202 -1.828125 20.515625 C-1.85132813 19.40960938 -1.87453125 18.30359375 -1.8984375 17.1640625 C-1.90665527 16.15037598 -1.91487305 15.13668945 -1.92333984 14.09228516 C-2.56747163 10.68811291 -3.76085404 9.50531557 -6.4375 7.375 C-9.51668512 6.57628472 -12.33350805 6.7110445 -15.4375 7.375 C-18.46159364 9.64627334 -18.46159364 9.64627334 -20.4375 12.375 C-20.7675 12.705 -21.0975 13.035 -21.4375 13.375 C-21.55839172 14.97354042 -21.61706652 16.57688927 -21.6484375 18.1796875 C-21.67679688 19.15550781 -21.70515625 20.13132812 -21.734375 21.13671875 C-21.78625784 23.20425009 -21.83058824 25.2719854 -21.8671875 27.33984375 C-21.91359375 28.80744141 -21.91359375 28.80744141 -21.9609375 30.3046875 C-21.98075684 31.20429199 -22.00057617 32.10389648 -22.02099609 33.03076172 C-22.5126399 35.79791521 -23.16629622 36.75251771 -25.4375 38.375 C-29.85855263 37.95394737 -29.85855263 37.95394737 -31.4375 36.375 C-31.53845564 33.72043807 -31.57720998 31.09244824 -31.5703125 28.4375 C-31.57126923 27.642229 -31.57222595 26.84695801 -31.57321167 26.02758789 C-31.57389343 24.3429354 -31.57203943 22.65828029 -31.56787109 20.97363281 C-31.56252275 18.38600803 -31.56781619 15.79855684 -31.57421875 13.2109375 C-31.57355797 11.57812461 -31.5722768 9.94531184 -31.5703125 8.3125 C-31.57233673 7.53334229 -31.57436096 6.75418457 -31.57644653 5.95141602 C-31.55245105 0.48995105 -31.55245105 0.48995105 -30.4375 -0.625 C-28.43791636 -0.66580783 -26.43704746 -0.66754356 -24.4375 -0.625 C-24.1075 0.365 -23.7775 1.355 -23.4375 2.375 C-22.91542969 2.08625 -22.39335937 1.7975 -21.85546875 1.5 C-14.63393231 -2.14238615 -7.53036936 -3.55981097 0 0 Z " fill="#3D3C48" transform="translate(269.4375,245.625)"/>
<path d="M0 0 C2.32758723 1.46583079 4.45561754 2.97124254 6.40234375 4.91796875 C6.58984375 7.35546875 6.58984375 7.35546875 6.40234375 9.91796875 C5.74234375 10.57796875 5.08234375 11.23796875 4.40234375 11.91796875 C1.84277063 11.66201144 0.58039433 11.06919512 -1.38671875 9.3984375 C-5.37891553 6.72521739 -9.98452349 7.14677634 -14.59765625 7.91796875 C-18.22721573 11.2018559 -19.52480762 13.82523927 -19.84765625 18.66796875 C-19.78102069 22.74014205 -18.9505965 25.51026218 -16.59765625 28.91796875 C-12.77911111 31.50110222 -9.0539839 31.00031205 -4.66796875 30.4140625 C-2.12413979 29.80450349 -0.65884869 28.48163198 1.40234375 26.91796875 C4.65234375 27.23046875 4.65234375 27.23046875 7.40234375 27.91796875 C7.33074743 30.99661069 7.16478712 33.15953824 4.91796875 35.39453125 C-0.98788872 39.71035017 -6.35182244 40.60454522 -13.59765625 39.91796875 C-19.37144334 37.99337305 -23.82461698 35.45088199 -27.34765625 30.41796875 C-30.22154656 24.67018813 -30.7571077 17.88524842 -28.94921875 11.69921875 C-26.65871635 6.60921342 -23.2189874 3.01672676 -18.59765625 -0.08203125 C-12.81515323 -2.00953226 -5.68151478 -2.36658585 0 0 Z " fill="#3F3F4B" transform="translate(324.59765625,245.08203125)"/>
<path d="M0 0 C1.57297679 0.00399909 3.14595394 0.01879146 4.71875 0.04296875 C5.48445313 0.04361328 6.25015625 0.04425781 7.0390625 0.04492188 C12.80927731 0.08834322 18.48802128 0.57451469 24.21875 1.23046875 C24.10907902 5.50184129 23.9784001 9.77231641 23.84375 14.04296875 C23.8128125 15.25791016 23.781875 16.47285156 23.75 17.72460938 C23.71132813 18.88798828 23.67265625 20.05136719 23.6328125 21.25 C23.6013916 22.32354736 23.5699707 23.39709473 23.53759766 24.50317383 C23.21875 27.23046875 23.21875 27.23046875 21.21875 30.23046875 C18.13953868 30.48706969 16.00738007 30.62478379 13.21875 29.23046875 C13.19134978 27.3763875 13.17217578 25.52218406 13.15625 23.66796875 C13.14464844 22.63542969 13.13304687 21.60289062 13.12109375 20.5390625 C13.22441268 17.03861731 13.66535219 13.68593694 14.21875 10.23046875 C13.02636719 10.25367188 11.83398438 10.276875 10.60546875 10.30078125 C9.03906876 10.31954053 7.472662 10.33774056 5.90625 10.35546875 C5.12056641 10.37222656 4.33488281 10.38898438 3.52539062 10.40625 C2.76806641 10.41269531 2.01074219 10.41914063 1.23046875 10.42578125 C0.18572388 10.4414917 0.18572388 10.4414917 -0.88012695 10.45751953 C-2.78125 10.23046875 -2.78125 10.23046875 -5.78125 8.23046875 C-6.09375 5.23046875 -6.09375 5.23046875 -5.78125 2.23046875 C-3.78125 0.23046875 -3.78125 0.23046875 0 0 Z " fill="#3EB8FF" transform="translate(386.78125,211.76953125)"/>
<path d="M0 0 C1.12067871 0.05236816 2.24135742 0.10473633 3.39599609 0.15869141 C4.60771484 0.21025391 5.81943359 0.26181641 7.06787109 0.31494141 C8.97439453 0.41162109 8.97439453 0.41162109 10.91943359 0.51025391 C12.19818359 0.56697266 13.47693359 0.62369141 14.79443359 0.68212891 C17.96164046 0.82394414 21.12809473 0.97538886 24.29443359 1.13525391 C24.56232811 25.59946487 24.56232811 25.59946487 22.29443359 30.13525391 C19.96148584 30.17767114 17.62740793 30.17618328 15.29443359 30.13525391 C14.29443359 29.13525391 14.29443359 29.13525391 14.16162109 26.15087891 C14.16419922 24.90822266 14.16677734 23.66556641 14.16943359 22.38525391 C14.16685547 21.15291016 14.16427734 19.92056641 14.16162109 18.65087891 C14.27437991 15.66608663 14.59854392 13.02927129 15.29443359 10.13525391 C14.72934082 10.15096436 14.16424805 10.1666748 13.58203125 10.18286133 C11.02793337 10.24512436 8.47399488 10.28421527 5.91943359 10.32275391 C5.02998047 10.34789062 4.14052734 10.37302734 3.22412109 10.39892578 C1.94794922 10.41342773 1.94794922 10.41342773 0.64599609 10.42822266 C-0.5322876 10.45178833 -0.5322876 10.45178833 -1.734375 10.47583008 C-2.38486816 10.36343994 -3.03536133 10.2510498 -3.70556641 10.13525391 C-5.70556641 7.13525391 -5.70556641 7.13525391 -5.45556641 4.57275391 C-4.39961683 1.1409178 -3.64327689 0.18213097 0 0 Z " fill="#3DB7FF" transform="translate(370.70556640625,225.86474609375)"/>
<path d="M0 0 C4.54054054 2.08108108 4.54054054 2.08108108 6 5 C6.20308225 7.47760344 6.32331994 9.89435735 6.375 12.375 C6.41238281 13.04789062 6.44976562 13.72078125 6.48828125 14.4140625 C6.5234375 16.3984375 6.5234375 16.3984375 6 20 C2.79003899 23.23087281 0.26375278 24.85418237 -4.25 25.375 C-9.23819002 24.876181 -10.57419694 23.58893653 -14 20 C-15.6377332 15.1068953 -16.24385748 9.6016561 -13.9765625 4.859375 C-10.13890998 -0.35644002 -6.2449056 -1.28808366 0 0 Z " fill="#FBFBFC" transform="translate(358,252)"/>
<path d="M0 0 C1.4540625 0.0309375 1.4540625 0.0309375 2.9375 0.0625 C3.2675 1.0525 3.5975 2.0425 3.9375 3.0625 C4.5975 2.5675 5.2575 2.0725 5.9375 1.5625 C9.90383241 -0.42066621 12.54053262 -0.16107461 16.9375 0.0625 C17.5625 2.4375 17.5625 2.4375 17.9375 5.0625 C15.9375 7.0625 15.9375 7.0625 12.5 7.9375 C8.61723611 9.16363597 7.89991102 9.65512778 5.9375 13.0625 C5.48553063 15.61691767 5.48553063 15.61691767 5.53125 18.37890625 C5.50933594 19.39017578 5.48742187 20.40144531 5.46484375 21.44335938 C5.44658101 23.56835909 5.42835197 25.69335909 5.41015625 27.81835938 C5.38824219 28.82833984 5.36632812 29.83832031 5.34375 30.87890625 C5.33311523 32.26251343 5.33311523 32.26251343 5.32226562 33.67407227 C4.9375 36.0625 4.9375 36.0625 3.57617188 37.90209961 C1.9375 39.0625 1.9375 39.0625 -0.6875 38.8125 C-3.0625 38.0625 -3.0625 38.0625 -4.0625 37.0625 C-4.16345564 34.40793807 -4.20220998 31.77994824 -4.1953125 29.125 C-4.19626923 28.329729 -4.19722595 27.53445801 -4.19821167 26.71508789 C-4.19889343 25.0304354 -4.19703943 23.34578029 -4.19287109 21.66113281 C-4.18752275 19.07350803 -4.19281619 16.48605684 -4.19921875 13.8984375 C-4.19855797 12.26562461 -4.1972768 10.63281184 -4.1953125 9 C-4.19733673 8.22084229 -4.19936096 7.44168457 -4.20144653 6.63891602 C-4.17265194 0.08515616 -4.17265194 0.08515616 0 0 Z " fill="#3D3C48" transform="translate(173.0625,244.9375)"/>
<path d="M0 0 C3.0625 0.1875 3.0625 0.1875 5.0625 2.1875 C5.27434648 4.7332356 5.36648808 7.16750638 5.36328125 9.71484375 C5.36756638 10.45956436 5.3718515 11.20428497 5.37626648 11.97157288 C5.38201282 13.54768863 5.3825078 15.1238309 5.37817383 16.69995117 C5.37501665 19.11227692 5.39845756 21.52337312 5.42382812 23.93554688 C5.42610137 25.46614428 5.42680449 26.996745 5.42578125 28.52734375 C5.434991 29.24929428 5.44420074 29.97124481 5.45368958 30.71507263 C5.42639942 33.66816712 5.39379322 35.70118656 3.70385742 38.18188477 C2.0625 39.1875 2.0625 39.1875 -0.5625 38.9375 C-2.9375 38.1875 -2.9375 38.1875 -3.9375 37.1875 C-4.03845564 34.53293807 -4.07720998 31.90494824 -4.0703125 29.25 C-4.07126923 28.454729 -4.07222595 27.65945801 -4.07321167 26.84008789 C-4.07389343 25.1554354 -4.07203943 23.47078029 -4.06787109 21.78613281 C-4.06252275 19.19850803 -4.06781619 16.61105684 -4.07421875 14.0234375 C-4.07355797 12.39062461 -4.0722768 10.75781184 -4.0703125 9.125 C-4.07233673 8.34584229 -4.07436096 7.56668457 -4.07644653 6.76391602 C-4.04786379 0.25837428 -4.04786379 0.25837428 0 0 Z " fill="#403F4C" transform="translate(287.9375,244.8125)"/>
<path d="M0 0 C3.0625 1.625 3.0625 1.625 5 4 C5.33 5.98 5.66 7.96 6 10 C-1.59 10 -9.18 10 -17 10 C-13.87719597 0.63158791 -9.50257533 -1.52915005 0 0 Z " fill="#F1F1F2" transform="translate(148,252)"/>
<path d="M0 0 C3.4744425 0.61045213 5.15550814 1.69251301 7.37890625 4.41796875 C7.70890625 6.39796875 8.03890625 8.37796875 8.37890625 10.41796875 C1.11890625 10.41796875 -6.14109375 10.41796875 -13.62109375 10.41796875 C-11.94163877 2.02069386 -8.25006365 -0.45492154 0 0 Z " fill="#F3F3F3" transform="translate(213.62109375,251.58203125)"/>
<path d="M0 0 C3.0625 0.1875 3.0625 0.1875 5.0625 2.1875 C4.50694444 6.74305556 4.50694444 6.74305556 3.0625 8.1875 C0.0625 8.3125 0.0625 8.3125 -2.9375 8.1875 C-3.9375 7.1875 -3.9375 7.1875 -4.0625 4.1875 C-3.89838889 0.24883333 -3.89838889 0.24883333 0 0 Z " fill="#43424E" transform="translate(287.9375,233.8125)"/>
</svg>
